<?xml version="1.0" encoding="UTF-8"?>
<svg width="91px" height="90px" viewBox="0 0 91 90" version="1.1" xmlns="http://www.w3.org/2000/svg" xmlns:xlink="http://www.w3.org/1999/xlink">
    <!-- Generator: Sketch 48.2 (47327) - http://www.bohemiancoding.com/sketch -->
    <title>broken-link</title>
    <desc>Created with Sketch.</desc>
    <defs></defs>
    <g id="Page-1" stroke="none" stroke-width="1" fill="none" fill-rule="evenodd">
        <g id="broken-link" fill="#FF5555" fill-rule="nonzero">
            <path d="M85.7,59.4 L71.6,45.3 C65.8,39.5 57,38.5 50.2,42.3 L48.7,40.8 C50.2,38.2 51,35.2 51,32.1 C51,27.3 49.1,22.8 45.7,19.4 L31.6,5.3 C24.6,-1.7 13.2,-1.7 6.2,5.3 C-0.8,12.3 -0.8,23.7 6.2,30.7 L20.3,44.8 C23.8,48.1 28.2,50 33,50 C36.1,50 39.1,49.2 41.7,47.7 L43.2,49.2 C39.4,56 40.4,64.8 46.2,70.6 L60.3,84.7 C63.9,88.2 68.5,90 73,90 C77.6,90 82.2,88.2 85.7,84.8 C92.7,77.7 92.7,66.4 85.7,59.4 Z M41,33 L38.5,30.5 C37.6,29.6 36.3,29 35,29 C33.7,29 32.5,29.5 31.5,30.5 C30.6,31.4 30,32.7 30,34 C30,35.3 30.5,36.6 31.5,37.5 L34,40 C31.7,40.3 29.2,39.5 27.4,37.7 L13.3,23.6 C10.2,20.5 10.2,15.4 13.3,12.3 C14.8,10.7 16.9,10 18.9,10 C20.9,10 23,10.8 24.5,12.3 L38.6,26.4 C40.5,28.2 41.2,30.6 41,33 Z M78.7,77.7 C75.6,80.8 70.5,80.8 67.4,77.7 L53.3,63.6 C51.5,61.8 50.8,59.4 51,57 L53.5,59.5 C54.5,60.5 55.7,61 57,61 C58.3,61 59.5,60.5 60.5,59.5 C62.4,57.6 62.4,54.5 60.5,52.5 L58,50 C58.3,50 58.6,49.9 58.9,49.9 C60.9,49.9 63,50.7 64.5,52.2 L78.6,66.3 C81.8,69.5 81.8,74.6 78.7,77.7 Z M67.1,23.9 C66.3,23.1 66.3,21.9 67.1,21.1 L74.4,13.8 C75.2,13 76.4,13 77.2,13.8 C78,14.6 78,15.8 77.2,16.6 L70,23.9 C69.6,24.3 69.1,24.5 68.6,24.5 C68.1,24.5 67.5,24.3 67.1,23.9 Z M74.4,35 L86,35 C87.1,35 88,35.9 88,37 C88,38.1 87.1,39 86,39 L74.4,39 C73.3,39 72.4,38.1 72.4,37 C72.4,35.9 73.3,35 74.4,35 Z M52,16.6 L52,5 C52,3.9 52.9,3 54,3 C55.1,3 56,3.9 56,5 L56,16.6 C56,17.7 55.1,18.6 54,18.6 C52.9,18.6 52,17.7 52,16.6 Z" id="Shape"></path>
        </g>
    </g>
</svg>